Coordinates
version=1
nRows=14
nColumns=40
inDegrees=yes

Units are S.I. units (second, meters, Newtons, ...)
Angles are in degrees.

endheader
time	pelvis_tilt	pelvis_list	pelvis_rotation	pelvis_tx	pelvis_ty	pelvis_tz	hip_flexion_r	hip_adduction_r	hip_rotation_r	knee_angle_r	knee_angle_r_beta	ankle_angle_r	subtalar_angle_r	mtp_angle_r	hip_flexion_l	hip_adduction_l	hip_rotation_l	knee_angle_l	knee_angle_l_beta	ankle_angle_l	subtalar_angle_l	mtp_angle_l	lumbar_extension	lumbar_bending	lumbar_rotation	arm_flex_r	arm_add_r	arm_rot_r	elbow_flex_r	pro_sup_r	wrist_flex_r	wrist_dev_r	arm_flex_l	arm_add_l	arm_rot_l	elbow_flex_l	pro_sup_l	wrist_flex_l	wrist_dev_l
     24.47000000	     -5.64959569	     -4.28473812	     -2.05280169	      1.01127047	      0.93436054	      0.42079696	     32.33198990	     -8.12919070	     -6.43972275	     66.93034566	     66.93034566	      1.37601420	    -12.30760471	     -0.55397261	     16.31831699	     -5.25497031	    -10.19275099	     20.53543774	     20.53543774	     12.81854835	     -5.60535045	     -0.02950249	    -10.95864626	      3.51188173	      3.80067123	     10.81750811	    -15.11251630	     -2.85439735	     71.25627729	     42.94106515	      0.00000000	      0.00000000	     18.26743404	    -16.68627601	      3.31146183	     48.28339951	     43.71464199	      0.00000000	      0.00000000
     24.48100000	     -5.74725515	     -4.46972081	     -2.13628571	      1.00942621	      0.93450486	      0.42095911	     33.39474710	     -7.81564760	     -6.64691789	     65.39243730	     65.39243730	      1.44186257	    -11.78571448	     -0.74095054	     15.77791244	     -5.47016535	    -10.39647082	     20.20677577	     20.20677577	     13.14547419	     -5.17779954	     -0.30753688	    -11.02503381	      3.70768700	      4.16116407	      8.67455995	    -15.61681325	     -2.70322339	     68.52996714	     43.05705390	      0.00000000	      0.00000000	     20.41685852	    -16.88906269	      3.33201613	     49.76304957	     43.79045847	      0.00000000	      0.00000000
     24.49200000	     -5.81782148	     -4.65422451	     -2.23180257	      1.00765960	      0.93465371	      0.42119488	     34.28853523	     -7.47028526	     -6.85022403	     63.64268345	     63.64268345	      1.40412548	    -11.28569281	     -0.90734223	     15.19393879	     -5.69426560	    -10.63706246	     19.85548048	     19.85548048	     13.45029756	     -4.71008157	     -0.69516130	    -11.09540930	      3.86891261	      4.43469625	      6.94303382	    -15.89747016	     -2.63521786	     65.02340870	     43.20628337	      0.00000000	      0.00000000	     22.48009396	    -17.15871366	      3.66304048	     51.25524290	     43.84077335	      0.00000000	      0.00000000
     24.50300000	     -5.93036779	     -4.76594771	     -2.30732587	      1.00594847	      0.93465069	      0.42148611	     35.09681775	     -7.15091136	     -6.99345413	     61.67653354	     61.67653354	      1.22461988	    -10.95709786	     -1.39970188	     14.66674086	     -5.86780592	    -11.02754875	     19.50544290	     19.50544290	     13.56082993	     -4.10100889	     -1.61963789	    -11.00712141	      3.93879386	      3.84849724	      6.96939138	    -15.18516542	     -2.90834554	     58.26593897	     43.56218235	      0.00000000	      0.00000000	     24.04314068	    -18.56051267	      5.34488355	     52.75428520	     43.88107593	      0.00000000	      0.00000000
     24.51400000	     -5.93533976	     -4.83192374	     -2.42897210	      1.00439583	      0.93474991	      0.42170912	     35.66279444	     -6.88219597	     -7.12115090	     59.49729012	     59.49729012	      1.25024887	    -10.35510824	     -1.30457793	     13.95165893	     -5.90792177	    -11.18273788	     19.03419955	     19.03419955	     13.79759632	     -3.90953273	     -1.87574034	    -11.19617764	      4.00070125	      4.18320036	      5.29429572	    -15.54748875	     -2.70329774	     55.34370415	     43.68777868	      0.00000000	      0.00000000	     25.98731731	    -18.77703474	      5.43894548	     54.40071233	     43.96430849	      0.00000000	      0.00000000
     24.52500000	     -6.03110175	     -4.86954014	     -2.49752833	      1.00296874	      0.93465854	      0.42194016	     36.18433629	     -6.64873976	     -7.29808530	     57.06487552	     57.06487552	      1.19285555	     -9.84937174	     -1.21483268	     13.32278765	     -5.93329582	    -11.41551894	     18.51603587	     18.51603587	     13.83188728	     -3.57164030	     -2.74409550	    -11.12888520	      4.02982106	      3.69452939	      5.25597514	    -15.06334706	     -2.86831824	     49.15111880	     44.02157498	      0.00000000	      0.00000000	     27.38284906	    -19.85419963	      6.47589594	     56.00116231	     44.08389459	      0.00000000	      0.00000000
     24.53600000	     -6.02956126	     -4.81589094	     -2.62409436	      1.00170829	      0.93458513	      0.42215829	     36.48206735	     -6.48266666	     -7.42726456	     54.39235801	     54.39235801	      1.24026093	     -9.24296483	     -0.97957263	     12.52758543	     -5.81950092	    -11.61285987	     17.92587556	     17.92587556	     14.05943079	     -3.37065855	     -2.99079842	    -11.29483911	      3.98811519	      3.96574077	      3.62770247	    -15.31875950	     -2.80084580	     46.56728920	     44.13896746	      0.00000000	      0.00000000	     29.11506589	    -19.97783521	      6.37325732	     57.59643481	     44.18496034	      0.00000000	      0.00000000
     24.54700000	     -6.11824878	     -4.74986698	     -2.70917568	      1.00055793	      0.93431757	      0.42240010	     36.68764718	     -6.32496077	     -7.64179249	     51.37869650	     51.37869650	      1.19690290	     -8.74920898	     -1.00419814	     11.80909567	     -5.68653883	    -11.76461128	     17.27004506	     17.27004506	     14.01640849	     -3.20815504	     -3.91465223	    -11.23093273	      3.95134370	      3.53645904	      3.52570173	    -14.89275214	     -3.37619268	     41.01660517	     44.47403358	      0.00000000	      0.00000000	     30.25688053	    -20.85538211	      6.85602820	     59.38058740	     44.37279418	      0.00000000	      0.00000000
     24.55800000	     -6.13212955	     -4.60448599	     -2.82272908	      0.99958741	      0.93400134	      0.42263895	     36.69019289	     -6.22379136	     -7.85668579	     48.14794458	     48.14794458	      1.30278154	     -8.15603786	     -0.74489781	     10.97164738	     -5.45163248	    -11.96851947	     16.59041328	     16.59041328	     14.25029527	     -2.98297453	     -4.12514378	    -11.33867464	      3.86414024	      3.79329351	      1.79173090	    -15.14068783	     -3.44600015	     39.06676253	     44.56700073	      0.00000000	      0.00000000	     31.73750646	    -20.84592746	      6.62331902	     60.93134236	     44.47132919	      0.00000000	      0.00000000
     24.56900000	     -6.20481606	     -4.47389588	     -2.89905566	      0.99875464	      0.93353546	      0.42289403	     36.54840268	     -6.10911920	     -8.22965777	     44.59228162	     44.59228162	      1.37709784	     -7.56039647	     -0.43107009	     10.20003420	     -5.23303312	    -12.11752624	     15.92192314	     15.92192314	     14.46935254	     -2.72649212	     -4.41893111	    -11.34035227	      3.81090218	      3.86943648	      0.21310820	    -15.31107442	     -3.58271827	     37.08279108	     44.66189283	      0.00000000	      0.00000000	     32.98416853	    -20.91801512	      6.50798054	     62.36340115	     44.54580983	      0.00000000	      0.00000000
     24.58000000	     -6.22472936	     -4.22658216	     -3.01396279	      0.99813573	      0.93293097	      0.42321696	     36.23986612	     -6.06473382	     -8.60793251	     40.88373294	     40.88373294	      1.45722697	     -6.89151157	     -0.20761677	      9.30076368	     -4.87783796	    -12.35179086	     15.15130328	     15.15130328	     14.61105337	     -2.45240963	     -4.90930961	    -11.37864906	      3.61484940	      4.05180678	     -1.21891864	    -15.35423578	     -3.89426636	     34.56741660	     44.79715694	      0.00000000	      0.00000000	     34.16373440	    -20.99396245	      6.46159083	     64.20458436	     44.63345558	      0.00000000	      0.00000000
     24.59100000	     -6.32445560	     -3.95623290	     -3.06665428	      0.99769591	      0.93203789	      0.42357185	     35.82095137	     -6.02921007	     -9.16100061	     36.93844791	     36.93844791	      1.27377066	     -6.29204788	     -0.56366424	      8.43388400	     -4.45521725	    -12.36914070	     14.21029927	     14.21029927	     14.18704125	     -2.61142518	     -6.59087656	    -11.24711335	      3.38695525	      3.37043983	     -1.09387154	    -14.79625902	     -5.95256504	     29.56049309	     45.24202745	      0.00000000	      0.00000000	     34.31359204	    -21.99866049	      6.31843725	     67.15568956	     44.92294179	      0.00000000	      0.00000000
     24.60200000	     -6.43356232	     -3.74554403	     -3.11639441	      0.99743000	      0.93099675	      0.42401861	     35.27175679	     -5.88156602	     -9.83805873	     32.94212902	     32.94212902	      1.35276373	     -5.49593879	      0.17756724	      7.70982747	     -4.16085377	    -12.46662190	     13.63380503	     13.63380503	     14.51605747	     -2.36533615	     -6.77229195	    -11.10160139	      3.28069742	      3.38942589	     -2.85243737	    -14.94222079	     -6.10952696	     28.63750302	     45.28851998	      0.00000000	      0.00000000	     35.27316461	    -21.95956777	      6.03798518	     68.29931344	     44.99045690	      0.00000000	      0.00000000
     24.61300000	     -6.36916133	     -3.39254748	     -3.15743188	      0.99759028	      0.92997947	      0.42450091	     34.52894946	     -5.90380515	    -10.66721924	     29.21365658	     29.21365658	      1.82584260	     -4.11979362	      1.84043563	      6.59134802	     -3.64899982	    -12.57665465	     12.64939167	     12.64939167	     14.33347059	     -2.22717524	     -7.96213714	    -11.18880989	      2.96409084	      3.39961899	     -4.21417481	    -14.80744126	     -8.02581370	     26.73953173	     45.59504813	      0.00000000	      0.00000000	     35.56082888	    -22.06506668	      5.50411680	     71.32207286	     45.30121199	      0.00000000	      0.00000000
